<svg id="Layer_1" enable-background="new 0 0 512 512" height="300" viewBox="0 0 512 512" width="300" xmlns="http://www.w3.org/2000/svg" version="1.1" xmlns:xlink="http://www.w3.org/1999/xlink" xmlns:svgjs="http://svgjs.dev/svgjs"><g width="100%" height="100%" transform="matrix(1,0,0,1,0,0)"><path d="m509.517 184.709-46.452-38.795 31.349-53.074c1.095-1.851 1.266-4.104.464-6.099-.802-1.991-2.482-3.5-4.554-4.081l-228.392-63.991c-3.004-.86-6.225.441-7.82 3.144l-30.2 51.122-44.714-37.339c-2.365-1.968-5.734-2.144-8.279-.441l-167.841 112.153c-1.815 1.212-2.95 3.207-3.068 5.383-.117 2.176.802 4.284 2.473 5.68l46.45 38.797-31.346 53.072c-1.072 1.811-1.261 4.013-.509 5.982.748 1.968 2.356 3.486 4.365 4.126l29.522 9.411v141.917c0 3.013 1.95 5.676 4.82 6.59l235.274 75c.685.221 1.396.329 2.099.329 1.5 0 2.982-.491 4.203-1.423l160.959-123.166c1.712-1.311 2.716-3.342 2.716-5.495v-131.079l48.248-36.918c1.671-1.279 2.671-3.248 2.716-5.347.044-2.103-.871-4.112-2.483-5.458zm-217.698 78.224-59.175-18.864v-151.478l206.266 57.79zm-73.013-23.273-145.138-46.266 145.138-96.983zm44.514-206.235 214.603 60.13-27.054 45.806-214.61-60.128zm-89.018 16.113 39.892 33.314-155.85 104.143-39.893-33.317zm-113.27 154.347 221.753 70.69-27.123 45.916-221.747-70.688zm3.771 70.285 191.913 61.178c.694.225 1.401.329 2.099.329 2.396 0 4.685-1.248 5.955-3.401l21.468-36.347v181.278l-221.435-70.585zm382.394 85.921-147.121 112.577v-187.247l39.603 33.075c1.284 1.068 2.86 1.608 4.437 1.608 1.482 0 2.959-.473 4.203-1.423l98.878-75.66zm-102.891-55.761-40.074-33.471 149.694-114.546 40.078 33.472z" fill="#8c8c8c" fill-opacity="1" data-original-color="#000000ff" stroke="none" stroke-opacity="1"/></g></svg>