<svg id="Layer_1" enable-background="new 0 0 512 512" height="300" viewBox="0 0 512 512" width="300" xmlns="http://www.w3.org/2000/svg" version="1.1" xmlns:xlink="http://www.w3.org/1999/xlink" xmlns:svgjs="http://svgjs.dev/svgjs"><g width="100%" height="100%" transform="matrix(1,0,0,1,0,0)"><path d="m464.866 112.467c-53.742 0-97.465-43.724-97.465-97.467 0-8.284-6.716-15-15-15h-80.334c-8.284 0-15 6.716-15 15v329.367c0 31.595-25.705 57.299-57.301 57.299-31.595 0-57.299-25.704-57.299-57.299 0-31.596 25.704-57.301 57.299-57.301 8.284 0 15-6.716 15-15v-80.334c0-8.284-6.716-15-15-15-92.433 0-167.633 75.201-167.633 167.635.001 92.433 75.2 167.633 167.634 167.633s167.635-75.2 167.635-167.633v-145.79c29.856 15.915 63.073 24.224 97.465 24.224 8.284 0 15-6.716 15-15v-80.334c-.001-8.284-6.717-15-15.001-15zm-15 79.713c-32.023-2.663-62.431-13.85-88.705-32.751-4.568-3.286-10.592-3.739-15.601-1.173-5.008 2.567-8.159 7.721-8.159 13.349v172.762c0 75.891-61.743 137.633-137.635 137.633-75.891 0-137.633-61.742-137.633-137.633 0-70.825 53.771-129.326 122.633-136.823v50.812c-41.017 7.13-72.299 42.986-72.299 86.011 0 48.137 39.162 87.299 87.299 87.299 48.138 0 87.301-39.162 87.301-87.299v-314.367h51.211c6.868 58.32 53.269 104.721 111.587 111.589v50.591z" fill="#ffffff" fill-opacity="1" data-original-color="#000000ff" stroke="none" stroke-opacity="1"/></g></svg>